<mxfile host="app.diagrams.net" modified="2023-06-08T14:33:55.393Z" agent="Mozilla/5.0 (Windows NT 10.0; Win64; x64) AppleWebKit/537.36 (KHTML, like Gecko) Chrome/112.0.0.0 Safari/537.36" etag="cbq4tIVmT7_Nxq4HHD5c" version="21.3.7" type="device">
  <diagram name="Page-1" id="edf60f1a-56cd-e834-aa8a-f176f3a09ee4">
    <mxGraphModel dx="1390" dy="790" grid="1" gridSize="10" guides="1" tooltips="1" connect="1" arrows="1" fold="1" page="1" pageScale="1" pageWidth="1100" pageHeight="850" background="none" math="0" shadow="0">
      <root>
        <mxCell id="0" />
        <mxCell id="1" parent="0" />
        <mxCell id="6ePbYgDxTwhvtM5WB2k1-1" value="&lt;h1&gt;Flowchart&lt;/h1&gt;" style="text;html=1;strokeColor=none;fillColor=none;spacing=5;spacingTop=-20;whiteSpace=wrap;overflow=hidden;rounded=0;" vertex="1" parent="1">
          <mxGeometry x="190" y="80" width="190" height="120" as="geometry" />
        </mxCell>
        <mxCell id="6ePbYgDxTwhvtM5WB2k1-2" value="&lt;h1&gt;Pseudo-code&lt;/h1&gt;" style="text;html=1;strokeColor=none;fillColor=none;spacing=5;spacingTop=-20;whiteSpace=wrap;overflow=hidden;rounded=0;" vertex="1" parent="1">
          <mxGeometry x="600" y="80" width="190" height="40" as="geometry" />
        </mxCell>
        <mxCell id="6ePbYgDxTwhvtM5WB2k1-4" value="Begin&lt;br&gt;&lt;span style=&quot;white-space: pre;&quot;&gt;&#x9;&lt;/span&gt;Input N,&amp;nbsp;a1, a2, a3, ..., aN&lt;br&gt;&lt;span style=&quot;white-space: pre;&quot;&gt;&#x9;&lt;/span&gt;Max = a1&lt;br&gt;&lt;span style=&quot;white-space: pre;&quot;&gt;&#x9;&lt;/span&gt;for i = 1 to N step 1:&lt;br&gt;&lt;span style=&quot;white-space: pre;&quot;&gt;&#x9;&lt;/span&gt;&lt;span style=&quot;white-space: pre;&quot;&gt;&#x9;&lt;/span&gt;If ai &amp;gt; Max:&lt;br&gt;&lt;span style=&quot;white-space: pre;&quot;&gt;&#x9;&lt;/span&gt;&lt;span style=&quot;white-space: pre;&quot;&gt;&#x9;&lt;/span&gt;&lt;span style=&quot;white-space: pre;&quot;&gt;&#x9;&lt;/span&gt;Max = ai&lt;br&gt;End" style="text;html=1;strokeColor=none;fillColor=none;align=left;verticalAlign=middle;whiteSpace=wrap;rounded=0;" vertex="1" parent="1">
          <mxGeometry x="600" y="130" width="330" height="175" as="geometry" />
        </mxCell>
        <mxCell id="6ePbYgDxTwhvtM5WB2k1-14" value="" style="edgeStyle=orthogonalEdgeStyle;rounded=0;orthogonalLoop=1;jettySize=auto;html=1;" edge="1" parent="1" source="6ePbYgDxTwhvtM5WB2k1-5" target="6ePbYgDxTwhvtM5WB2k1-10">
          <mxGeometry relative="1" as="geometry" />
        </mxCell>
        <mxCell id="6ePbYgDxTwhvtM5WB2k1-17" style="edgeStyle=orthogonalEdgeStyle;rounded=0;orthogonalLoop=1;jettySize=auto;html=1;exitX=1;exitY=0.5;exitDx=0;exitDy=0;entryX=1;entryY=0.5;entryDx=0;entryDy=0;" edge="1" parent="1" source="6ePbYgDxTwhvtM5WB2k1-5" target="6ePbYgDxTwhvtM5WB2k1-16">
          <mxGeometry relative="1" as="geometry">
            <Array as="points">
              <mxPoint x="430" y="435" />
              <mxPoint x="430" y="745" />
            </Array>
          </mxGeometry>
        </mxCell>
        <mxCell id="6ePbYgDxTwhvtM5WB2k1-5" value="i &amp;lt;= N" style="rhombus;whiteSpace=wrap;html=1;" vertex="1" parent="1">
          <mxGeometry x="160" y="395" width="200" height="80" as="geometry" />
        </mxCell>
        <mxCell id="6ePbYgDxTwhvtM5WB2k1-12" value="" style="edgeStyle=orthogonalEdgeStyle;rounded=0;orthogonalLoop=1;jettySize=auto;html=1;" edge="1" parent="1" source="6ePbYgDxTwhvtM5WB2k1-7" target="6ePbYgDxTwhvtM5WB2k1-9">
          <mxGeometry relative="1" as="geometry" />
        </mxCell>
        <mxCell id="6ePbYgDxTwhvtM5WB2k1-28" value="" style="edgeStyle=orthogonalEdgeStyle;rounded=0;orthogonalLoop=1;jettySize=auto;html=1;" edge="1" parent="1" source="6ePbYgDxTwhvtM5WB2k1-7" target="6ePbYgDxTwhvtM5WB2k1-9">
          <mxGeometry relative="1" as="geometry" />
        </mxCell>
        <mxCell id="6ePbYgDxTwhvtM5WB2k1-7" value="Input N, a1, a2, a3, ..., aN" style="shape=parallelogram;perimeter=parallelogramPerimeter;whiteSpace=wrap;html=1;fixedSize=1;" vertex="1" parent="1">
          <mxGeometry x="160" y="215" width="200" height="60" as="geometry" />
        </mxCell>
        <mxCell id="6ePbYgDxTwhvtM5WB2k1-13" value="" style="edgeStyle=orthogonalEdgeStyle;rounded=0;orthogonalLoop=1;jettySize=auto;html=1;" edge="1" parent="1" source="6ePbYgDxTwhvtM5WB2k1-9" target="6ePbYgDxTwhvtM5WB2k1-5">
          <mxGeometry relative="1" as="geometry" />
        </mxCell>
        <mxCell id="6ePbYgDxTwhvtM5WB2k1-9" value="Max = a1&lt;br&gt;i = 1" style="rounded=0;whiteSpace=wrap;html=1;" vertex="1" parent="1">
          <mxGeometry x="200" y="305" width="120" height="60" as="geometry" />
        </mxCell>
        <mxCell id="6ePbYgDxTwhvtM5WB2k1-15" value="" style="edgeStyle=orthogonalEdgeStyle;rounded=0;orthogonalLoop=1;jettySize=auto;html=1;" edge="1" parent="1" source="6ePbYgDxTwhvtM5WB2k1-10" target="6ePbYgDxTwhvtM5WB2k1-11">
          <mxGeometry relative="1" as="geometry" />
        </mxCell>
        <mxCell id="6ePbYgDxTwhvtM5WB2k1-22" style="edgeStyle=orthogonalEdgeStyle;rounded=0;orthogonalLoop=1;jettySize=auto;html=1;exitX=0;exitY=0.5;exitDx=0;exitDy=0;entryX=0.5;entryY=0;entryDx=0;entryDy=0;" edge="1" parent="1" source="6ePbYgDxTwhvtM5WB2k1-10" target="6ePbYgDxTwhvtM5WB2k1-19">
          <mxGeometry relative="1" as="geometry" />
        </mxCell>
        <mxCell id="6ePbYgDxTwhvtM5WB2k1-10" value="ai &amp;gt; Max" style="rhombus;whiteSpace=wrap;html=1;" vertex="1" parent="1">
          <mxGeometry x="160" y="505" width="200" height="80" as="geometry" />
        </mxCell>
        <mxCell id="6ePbYgDxTwhvtM5WB2k1-11" value="Max = ai" style="rounded=0;whiteSpace=wrap;html=1;" vertex="1" parent="1">
          <mxGeometry x="200" y="615" width="120" height="60" as="geometry" />
        </mxCell>
        <mxCell id="6ePbYgDxTwhvtM5WB2k1-26" style="edgeStyle=orthogonalEdgeStyle;rounded=0;orthogonalLoop=1;jettySize=auto;html=1;exitX=0.5;exitY=1;exitDx=0;exitDy=0;" edge="1" parent="1" source="6ePbYgDxTwhvtM5WB2k1-16" target="6ePbYgDxTwhvtM5WB2k1-25">
          <mxGeometry relative="1" as="geometry" />
        </mxCell>
        <mxCell id="6ePbYgDxTwhvtM5WB2k1-16" value="Display Max" style="shape=parallelogram;perimeter=parallelogramPerimeter;whiteSpace=wrap;html=1;fixedSize=1;" vertex="1" parent="1">
          <mxGeometry x="200" y="715" width="120" height="60" as="geometry" />
        </mxCell>
        <mxCell id="6ePbYgDxTwhvtM5WB2k1-23" style="edgeStyle=orthogonalEdgeStyle;rounded=0;orthogonalLoop=1;jettySize=auto;html=1;exitX=0;exitY=0.5;exitDx=0;exitDy=0;entryX=0;entryY=0.5;entryDx=0;entryDy=0;" edge="1" parent="1" source="6ePbYgDxTwhvtM5WB2k1-19" target="6ePbYgDxTwhvtM5WB2k1-5">
          <mxGeometry relative="1" as="geometry" />
        </mxCell>
        <mxCell id="6ePbYgDxTwhvtM5WB2k1-19" value="i = i + 1" style="rounded=0;whiteSpace=wrap;html=1;" vertex="1" parent="1">
          <mxGeometry x="40" y="615" width="120" height="60" as="geometry" />
        </mxCell>
        <mxCell id="6ePbYgDxTwhvtM5WB2k1-29" style="edgeStyle=orthogonalEdgeStyle;rounded=0;orthogonalLoop=1;jettySize=auto;html=1;exitX=0.5;exitY=1;exitDx=0;exitDy=0;entryX=0.5;entryY=0;entryDx=0;entryDy=0;" edge="1" parent="1" source="6ePbYgDxTwhvtM5WB2k1-24" target="6ePbYgDxTwhvtM5WB2k1-7">
          <mxGeometry relative="1" as="geometry" />
        </mxCell>
        <mxCell id="6ePbYgDxTwhvtM5WB2k1-24" value="Begin" style="ellipse;whiteSpace=wrap;html=1;" vertex="1" parent="1">
          <mxGeometry x="200" y="130" width="120" height="60" as="geometry" />
        </mxCell>
        <mxCell id="6ePbYgDxTwhvtM5WB2k1-25" value="End" style="ellipse;whiteSpace=wrap;html=1;" vertex="1" parent="1">
          <mxGeometry x="200" y="805" width="120" height="55" as="geometry" />
        </mxCell>
        <mxCell id="6ePbYgDxTwhvtM5WB2k1-30" value="False" style="text;html=1;strokeColor=none;fillColor=none;align=center;verticalAlign=middle;whiteSpace=wrap;rounded=0;" vertex="1" parent="1">
          <mxGeometry x="370" y="410" width="60" height="30" as="geometry" />
        </mxCell>
        <mxCell id="6ePbYgDxTwhvtM5WB2k1-31" value="True" style="text;html=1;strokeColor=none;fillColor=none;align=center;verticalAlign=middle;whiteSpace=wrap;rounded=0;" vertex="1" parent="1">
          <mxGeometry x="255" y="475" width="60" height="30" as="geometry" />
        </mxCell>
        <mxCell id="6ePbYgDxTwhvtM5WB2k1-32" value="True" style="text;html=1;strokeColor=none;fillColor=none;align=center;verticalAlign=middle;whiteSpace=wrap;rounded=0;" vertex="1" parent="1">
          <mxGeometry x="255" y="585" width="60" height="30" as="geometry" />
        </mxCell>
        <mxCell id="6ePbYgDxTwhvtM5WB2k1-33" value="False" style="text;html=1;strokeColor=none;fillColor=none;align=center;verticalAlign=middle;whiteSpace=wrap;rounded=0;" vertex="1" parent="1">
          <mxGeometry x="90" y="520" width="60" height="30" as="geometry" />
        </mxCell>
      </root>
    </mxGraphModel>
  </diagram>
</mxfile>
